Simulation
nRows=48
nColumns=15
endheader
time  TH_x TH_y TH_z SC_y  SC_z  SC_x  AC_y  AC_z  AC_x  GH_y  GH_z  GH_yy  EL_x  PS_y
8.6175  0.000000  0.000000  0.000000  -35.35788479066506  2.564320038851187  -8.599608124409224  41.09999696203689  14.324053014923514  5.215281335692706  114.60486857334854  5.019241745070278  -99.27630311871025  20.576068123222427  120.000000
8.67495  0.000000  0.000000  0.000000  -34.929743484190205  2.490357404462079  -9.088702277781541  40.5559682848451  14.234425715353206  4.990773477864988  104.42716280908759  5.486341686214707  -89.15234115374156  20.505746874998323  120.000000
8.7324  0.000000  0.000000  0.000000  -34.47642818280514  2.328999793781356  -9.69148480708671  40.096061728415926  14.194066641967943  4.837520959593611  94.57693721026811  6.514926443951266  -79.21258435843583  20.610365526254466  120.000000
8.78985  0.000000  0.000000  0.000000  -34.050336432808784  2.0832375186004155  -10.365566274035398  39.75052830573175  14.196091967281578  4.793983141297101  86.87837879962487  8.182853491722206  -71.33225122866827  20.872512816101565  120.000000
8.8473  0.000000  0.000000  0.000000  -33.70609524708433  1.7896002153480997  -11.068068145742503  39.536758725417016  14.241755597279388  4.893447100894181  81.6882146140465  10.485002443446739  -65.96433129263792  21.230642916458226  120.000000
8.90475  0.000000  0.000000  0.000000  -33.48306110009486  1.514983502316614  -11.758632645028518  39.465304953076625  14.339841482236471  5.160468436418111  78.51092420655671  13.356384044044734  -62.72772854791103  21.608896342129842  120.000000
8.9622  0.000000  0.000000  0.000000  -33.388479363497325  1.3462470504999935  -12.397473775250052  39.553753697381296  14.509387447307473  5.601910390033756  76.71709786730273  16.686214222742674  -61.098724210188365  21.942094868885455  120.000000
9.01965  0.000000  0.000000  0.000000  -33.412971588895594  1.366966383133794  -12.931166242866151  39.8154666385604  14.770561582850295  6.2182620495007725  75.81863533736475  20.334520559029425  -60.66606078895684  22.191660695765876  120.000000
9.0771  0.000000  0.000000  0.000000  -33.54269679085056  1.635902850937031  -13.282407613348365  40.24189980701567  15.122197572386654  7.029148155548354  75.51909379355442  24.155824150808808  -61.16177462373481  22.3474095461683  120.000000
9.13455  0.000000  0.000000  0.000000  -33.764944824027786  2.1818516470618885  -13.359225577050118  40.81553327049195  15.54557108046756  8.057420367407033  75.6345085313443  28.02866601674331  -62.38791341973852  22.41570009184853  120.000000
9.192  0.000000  0.000000  0.000000  -34.07810450367056  3.026901667476356  -13.072229576783686  41.53017788876113  16.02455754471659  9.288168922990184  76.00137466376678  31.871049717409562  -64.14829637689634  22.403093157583168  120.000000
9.24945  0.000000  0.000000  0.000000  -34.49061579046802  4.192276236603359  -12.340067670491074  42.382398916433736  16.540911152512418  10.666455128156356  76.4661557877416  35.62808920939024  -66.24290924009512  22.3058940705602  120.000000
9.3069  0.000000  0.000000  0.000000  -35.03186056644965  5.669518133677747  -11.08820953373262  43.354555456750965  17.055443087951968  12.12489730707807  76.90617396042796  39.26061393386942  -68.4901915389112  22.111736172575448  120.000000
9.36435  0.000000  0.000000  0.000000  -35.74052542015739  7.408682961328872  -9.253602006108315  44.42045672689667  17.510481805988682  13.597991781603088  77.24028436336964  42.73774861829764  -70.74086748962968  21.808515306196544  120.000000
9.421800000000001  0.000000  0.000000  0.000000  -36.65159492611406  9.325283309510572  -6.7973223116818415  45.55338227584168  17.843323576428535  15.026260520502356  77.42392126820262  46.03209256064623  -72.881794914966  21.397788498458592  120.000000
9.47925  0.000000  0.000000  0.000000  -37.794534828961595  11.308762054033043  -3.7210985392001867  46.719284881809216  17.997471411629874  16.363750602779795  77.43834708966976  49.11388908645772  -74.8342495923242  20.902602663469782  120.000000
9.5367  0.000000  0.000000  0.000000  -39.18290973816178  13.232701490248557  -0.08445969424903789  47.872776911075384  17.937946040334886  17.576084643845604  77.28013284914817  51.946607956141136  -76.5467438851076  20.363160004561834  120.000000
9.59415  0.000000  0.000000  0.000000  -40.80122256703313  14.970321338096936  3.9823736293691745  48.961545937564395  17.661433762695847  18.633089794170576  76.95434549034447  54.49156253341354  -77.98470797364806  19.825716209505554  120.000000
9.6516  0.000000  0.000000  0.000000  -42.58347506843985  16.413564648347105  8.280524692914948  49.93412060314752  17.19338251843102  19.508290792076785  76.48129226961927  56.71151435293614  -79.12471541115966  19.331049932972952  120.000000
9.70905  0.000000  0.000000  0.000000  -44.40846754785302  17.501171445021296  12.560854889269061  50.75575073966662  16.58014391752552  20.176594157761212  75.90442059402825  58.580135101708315  -79.95442880569415  18.908659074254917  120.000000
9.7665  0.000000  0.000000  0.000000  -46.11800404109997  18.230536833559164  16.554923794273307  51.41022605075439  15.874414260446976  20.61757569400426  75.28574834248631  60.083167147530126  -80.47341764882125  18.577392648528864  120.000000
9.82395  0.000000  0.000000  0.000000  -47.55463157320963  18.651833999955706  20.013546563558425  51.896211057095606  15.125757047192668  20.81328033888197  74.69201395947196  61.214444122297685  -80.69678384972956  18.34704687782074  120.000000
9.8814  0.000000  0.000000  0.000000  -48.58931472472788  18.846394923690905  22.734164354984305  52.225591244035186  14.378506702358049  20.74901856349643  74.18023758131655  61.97573440774615  -80.65582774578631  18.219906894707727  120.000000
9.93885  0.000000  0.000000  0.000000  -49.13135206207885  18.891964308139944  24.570279645823554  52.41913296977501  13.672496346121392  20.42485158608331  73.79210313404313  62.37539048803103  -80.3948526745858  18.188629673259356  120.000000
9.9963  0.000000  0.000000  0.000000  -49.13164924264459  18.840603496328278  25.426911343525116  52.49834314590042  13.047304696993226  19.85957207588353  73.54690680018153  62.42379282578514  -79.96022428690472  18.234441033967805  120.000000
10.05375  0.000000  0.000000  0.000000  -48.586088800131066  18.704704724123264  25.255418483621163  52.47507314722996  12.536930157578459  19.090054485218417  73.44259103099527  62.12916029343553  -79.38657808226398  18.329265878168126  120.000000
10.1112  0.000000  0.000000  0.000000  -47.53773093051925  18.452777918490387  24.05742390856755  52.346575890054055  12.166780410881215  18.16638971819882  73.45996652491255  61.497950130238046  -78.6820600582535  18.442540429106494  120.000000
10.16865  0.000000  0.000000  0.000000  -46.08138475980593  18.01981215241013  21.897187959445954  52.09497687716889  11.95704245736442  17.145381777762  73.56343894375648  60.536172492880226  -77.81435949516587  18.545536700952166  120.000000
10.2261  0.000000  0.000000  0.000000  -44.36011461138199  17.32798917397746  18.908657930124036  51.69306339101585  11.924418235751853  16.08747376117999  73.70087896590161  59.2528210090607  -76.71156917811992  18.61438274605334  120.000000
10.28355  0.000000  0.000000  0.000000  -42.54137858070973  16.32141223457835  15.285877520029572  51.121442667210005  12.085292469169367  15.055027831879114  73.80797667872865  57.66619278759215  -75.2818288733126  18.635130085551012  120.000000
10.341000000000001  0.000000  0.000000  0.000000  -40.78337832973197  14.99122260649757  11.250441699117113  50.37953453007348  12.44730979229004  14.113213306116348  73.8179861634413  55.803448925365096  -73.44527085299343  18.61119680614786  120.000000
10.39845  0.000000  0.000000  0.000000  -39.20621720656366  13.387385380015198  7.01145359284331  49.48523485485977  12.999891753700089  13.319687408137854  73.66872849011234  53.69451292975899  -71.15988961715576  18.572459741836756  120.000000
10.4559  0.000000  0.000000  0.000000  -37.87617927444747  11.605467942258976  2.7407038484428408  48.46516708389992  13.708761181223739  12.716391589903395  73.31264364024928  51.36487201261559  -68.43598062262862  18.579774732819217  120.000000
10.51335  0.000000  0.000000  0.000000  -36.80806410835727  9.758551816576137  -1.4315374701607972  47.34496583934842  14.52351736768052  12.326768397414043  72.72030039310144  48.83224869944598  -65.32940651657363  18.713549406775467  120.000000
10.5708  0.000000  0.000000  0.000000  -35.98324377645318  7.9599356794639835  -5.406321433985261  46.148777281229144  15.395546467180395  12.15107314445299  71.87729543895334  46.10914307904965  -61.924128019724584  19.04694869568064  120.000000
10.62825  0.000000  0.000000  0.000000  -35.36598185677388  6.302565000728922  -9.104455468808895  44.90161998919298  16.290177270811938  12.17062495751934  70.78248084885931  43.20612573349965  -58.31449701157955  19.612042081066168  120.000000
10.6857  0.000000  0.000000  0.000000  -34.914420146841806  4.850937355300264  -12.46111317124321  43.636104857955566  17.187460396911174  12.354089687428452  69.45080295019703  40.13713428525777  -54.59615694716301  20.37757477915892  120.000000
10.74315  0.000000  0.000000  0.000000  -34.586289448549884  3.6353491348306757  -15.426345780180824  42.39620053771715  18.076508773028575  12.66282353255566  67.91570138717823  36.92215717685022  -50.861559589714716  21.256511983599065  120.000000
10.8006  0.000000  0.000000  0.000000  -34.34318713674515  2.6547647762761217  -17.968213381356062  41.23194160749051  18.944616842537574  13.05810430186296  66.23058771402856  33.58913216438035  -47.201392078404744  22.137053041819136  120.000000
10.85805  0.000000  0.000000  0.000000  -34.159554023649534  1.878361759275436  -20.07301785124704  40.187422577664336  19.7718471820542  13.510339185928885  64.46802237951823  30.17696858201954  -43.70678927891432  22.915807809051554  120.000000
10.9155  0.000000  0.000000  0.000000  -34.029195020601335  1.262335269581507  -21.744640204193466  39.288438252075665  20.535448248602115  14.002212391455654  62.71693843863289  26.736026533517705  -40.471730290756476  23.51868831464205  120.000000
10.97295  0.000000  0.000000  0.000000  -33.950323282363556  0.7853422172956384  -23.005774575384187  38.55822531089875  21.23906753767901  14.505207258221617  61.06837001747493  23.332589970129455  -37.583045240501015  23.901668701853293  120.000000
11.0304  0.000000  0.000000  0.000000  -33.93511032308496  0.4429971491959385  -23.89114099449538  38.01070348588866  21.921424802637535  14.979233058182201  59.60609284863603  20.046906325174874  -35.11872632972749  24.036643320220932  120.000000
11.08785  0.000000  0.000000  0.000000  -34.021715861230035  0.22885926957871694  -24.442163434684762  37.61598098218202  22.627963163589875  15.403350580822236  58.41743908884655  16.94198746337131  -33.143027906681446  23.896242836137066  120.000000
11.1453  0.000000  0.000000  0.000000  -34.258972602583924  0.1318227461994846  -24.707802331172353  37.30372305060943  23.39084399304763  15.79338573991044  57.64395615820057  14.057403247909804  -31.750769600878535  23.454806621592734  120.000000
11.20275  0.000000  0.000000  0.000000  -34.68908614528332  0.13096758816017304  -24.73682187903411  37.03152537675894  24.235084603736773  16.166731239234355  57.598502230335384  11.441375655494236  -31.209676964813525  22.68861964517784  120.000000
11.260200000000001  0.000000  0.000000  0.000000  -35.324544436761485  0.207567654157798  -24.566456942860327  36.81983637256211  25.174723844764298  16.503349509823792  58.94410098076578  9.140954690717765  -32.14631359039878  21.5824656185184  120.000000
11.31765  0.000000  0.000000  0.000000  -36.15405084282672  0.3178386717762252  -24.2348332774269  36.70726459884289  26.190547627564083  16.775781929521038  62.874893597459405  7.18841729506162  -35.73062558075108  20.12574044396899  120.000000
